<svg xmlns="http://www.w3.org/2000/svg" viewBox="0 0 1200 885" role="img">
<rect width="1200" height="885" fill="#ffffff"/>
<text x="105.0" y="52.0" font-size="29" text-anchor="start" fill="#263247" font-weight="700">32K String · throughput by connections</text>
<text x="105.0" y="78.0" font-size="15" text-anchor="start" fill="#66758b" font-weight="400">8 GiB logical data · 16 client threads · pipeline 1 · 15 s per point</text>
<line x1="105.0" y1="110.0" x2="133.0" y2="110.0" stroke="#dc5038" stroke-width="3" />
<text x="141.0" y="115.0" font-size="15" text-anchor="start" fill="#263247" font-weight="400">Redis</text>
<line x1="283.0" y1="110.0" x2="311.0" y2="110.0" stroke="#d9901f" stroke-width="3" />
<text x="319.0" y="115.0" font-size="15" text-anchor="start" fill="#263247" font-weight="400">Valkey</text>
<line x1="461.0" y1="110.0" x2="489.0" y2="110.0" stroke="#697486" stroke-width="3" stroke-dasharray="8 5"/>
<text x="497.0" y="115.0" font-size="15" text-anchor="start" fill="#263247" font-weight="400">Lavik serial</text>
<line x1="639.0" y1="110.0" x2="667.0" y2="110.0" stroke="#2367bb" stroke-width="3" />
<text x="675.0" y="115.0" font-size="15" text-anchor="start" fill="#263247" font-weight="400">Lavik</text>
<text x="105.0" y="153.0" font-size="21" text-anchor="start" fill="#263247" font-weight="700">GET · QPS</text>
<line x1="105.0" y1="425.0" x2="1110.0" y2="425.0" stroke="#dfe5ed" stroke-width="1" />
<text x="93.0" y="430.0" font-size="14" text-anchor="end" fill="#66758b" font-weight="400">0k</text>
<line x1="105.0" y1="374.0" x2="1110.0" y2="374.0" stroke="#dfe5ed" stroke-width="1" />
<text x="93.0" y="379.0" font-size="14" text-anchor="end" fill="#66758b" font-weight="400">20k</text>
<line x1="105.0" y1="323.0" x2="1110.0" y2="323.0" stroke="#dfe5ed" stroke-width="1" />
<text x="93.0" y="328.0" font-size="14" text-anchor="end" fill="#66758b" font-weight="400">40k</text>
<line x1="105.0" y1="272.0" x2="1110.0" y2="272.0" stroke="#dfe5ed" stroke-width="1" />
<text x="93.0" y="277.0" font-size="14" text-anchor="end" fill="#66758b" font-weight="400">60k</text>
<line x1="105.0" y1="221.0" x2="1110.0" y2="221.0" stroke="#dfe5ed" stroke-width="1" />
<text x="93.0" y="226.0" font-size="14" text-anchor="end" fill="#66758b" font-weight="400">80k</text>
<line x1="105.0" y1="170.0" x2="1110.0" y2="170.0" stroke="#dfe5ed" stroke-width="1" />
<text x="93.0" y="175.0" font-size="14" text-anchor="end" fill="#66758b" font-weight="400">100k</text>
<line x1="105.0" y1="170.0" x2="105.0" y2="425.0" stroke="#edf1f5" stroke-width="1" />
<text x="105.0" y="450.0" font-size="14" text-anchor="middle" fill="#66758b" font-weight="400">80</text>
<line x1="440.0" y1="170.0" x2="440.0" y2="425.0" stroke="#edf1f5" stroke-width="1" />
<text x="440.0" y="450.0" font-size="14" text-anchor="middle" fill="#66758b" font-weight="400">320</text>
<line x1="775.0" y1="170.0" x2="775.0" y2="425.0" stroke="#edf1f5" stroke-width="1" />
<text x="775.0" y="450.0" font-size="14" text-anchor="middle" fill="#66758b" font-weight="400">640</text>
<line x1="1110.0" y1="170.0" x2="1110.0" y2="425.0" stroke="#edf1f5" stroke-width="1" />
<text x="1110.0" y="450.0" font-size="14" text-anchor="middle" fill="#66758b" font-weight="400">1280</text>
<text x="607.5" y="480.0" font-size="16" text-anchor="middle" fill="#52627a" font-weight="400">Connections (tested levels)</text>
<polyline points="105.0,192.4 440.0,193.0 775.0,194.5 1110.0,195.7" fill="none" stroke="#dc5038" stroke-width="3" />
<circle cx="105.0" cy="192.4" r="4.5" fill="#dc5038"/>
<circle cx="440.0" cy="193.0" r="4.5" fill="#dc5038"/>
<circle cx="775.0" cy="194.5" r="4.5" fill="#dc5038"/>
<circle cx="1110.0" cy="195.7" r="4.5" fill="#dc5038"/>
<polyline points="105.0,192.5 440.0,193.3 775.0,194.5 1110.0,196.1" fill="none" stroke="#d9901f" stroke-width="3" />
<circle cx="105.0" cy="192.5" r="4.5" fill="#d9901f"/>
<circle cx="440.0" cy="193.3" r="4.5" fill="#d9901f"/>
<circle cx="775.0" cy="194.5" r="4.5" fill="#d9901f"/>
<circle cx="1110.0" cy="196.1" r="4.5" fill="#d9901f"/>
<polyline points="105.0,192.5 440.0,193.4 775.0,194.7 1110.0,195.9" fill="none" stroke="#697486" stroke-width="3" stroke-dasharray="8 5"/>
<circle cx="105.0" cy="192.5" r="4.5" fill="#697486"/>
<circle cx="440.0" cy="193.4" r="4.5" fill="#697486"/>
<circle cx="775.0" cy="194.7" r="4.5" fill="#697486"/>
<circle cx="1110.0" cy="195.9" r="4.5" fill="#697486"/>
<polyline points="105.0,192.4 440.0,193.3 775.0,194.6 1110.0,195.9" fill="none" stroke="#2367bb" stroke-width="3" />
<circle cx="105.0" cy="192.4" r="4.5" fill="#2367bb"/>
<circle cx="440.0" cy="193.3" r="4.5" fill="#2367bb"/>
<circle cx="775.0" cy="194.6" r="4.5" fill="#2367bb"/>
<circle cx="1110.0" cy="195.9" r="4.5" fill="#2367bb"/>
<text x="105.0" y="518.0" font-size="21" text-anchor="start" fill="#263247" font-weight="700">SET · QPS</text>
<line x1="105.0" y1="790.0" x2="1110.0" y2="790.0" stroke="#dfe5ed" stroke-width="1" />
<text x="93.0" y="795.0" font-size="14" text-anchor="end" fill="#66758b" font-weight="400">0k</text>
<line x1="105.0" y1="739.0" x2="1110.0" y2="739.0" stroke="#dfe5ed" stroke-width="1" />
<text x="93.0" y="744.0" font-size="14" text-anchor="end" fill="#66758b" font-weight="400">20k</text>
<line x1="105.0" y1="688.0" x2="1110.0" y2="688.0" stroke="#dfe5ed" stroke-width="1" />
<text x="93.0" y="693.0" font-size="14" text-anchor="end" fill="#66758b" font-weight="400">40k</text>
<line x1="105.0" y1="637.0" x2="1110.0" y2="637.0" stroke="#dfe5ed" stroke-width="1" />
<text x="93.0" y="642.0" font-size="14" text-anchor="end" fill="#66758b" font-weight="400">60k</text>
<line x1="105.0" y1="586.0" x2="1110.0" y2="586.0" stroke="#dfe5ed" stroke-width="1" />
<text x="93.0" y="591.0" font-size="14" text-anchor="end" fill="#66758b" font-weight="400">80k</text>
<line x1="105.0" y1="535.0" x2="1110.0" y2="535.0" stroke="#dfe5ed" stroke-width="1" />
<text x="93.0" y="540.0" font-size="14" text-anchor="end" fill="#66758b" font-weight="400">100k</text>
<line x1="105.0" y1="535.0" x2="105.0" y2="790.0" stroke="#edf1f5" stroke-width="1" />
<text x="105.0" y="815.0" font-size="14" text-anchor="middle" fill="#66758b" font-weight="400">80</text>
<line x1="440.0" y1="535.0" x2="440.0" y2="790.0" stroke="#edf1f5" stroke-width="1" />
<text x="440.0" y="815.0" font-size="14" text-anchor="middle" fill="#66758b" font-weight="400">320</text>
<line x1="775.0" y1="535.0" x2="775.0" y2="790.0" stroke="#edf1f5" stroke-width="1" />
<text x="775.0" y="815.0" font-size="14" text-anchor="middle" fill="#66758b" font-weight="400">640</text>
<line x1="1110.0" y1="535.0" x2="1110.0" y2="790.0" stroke="#edf1f5" stroke-width="1" />
<text x="1110.0" y="815.0" font-size="14" text-anchor="middle" fill="#66758b" font-weight="400">1280</text>
<text x="607.5" y="845.0" font-size="16" text-anchor="middle" fill="#52627a" font-weight="400">Connections (tested levels)</text>
<polyline points="105.0,551.8 440.0,551.8 775.0,551.5 1110.0,551.2" fill="none" stroke="#dc5038" stroke-width="3" />
<circle cx="105.0" cy="551.8" r="4.5" fill="#dc5038"/>
<circle cx="440.0" cy="551.8" r="4.5" fill="#dc5038"/>
<circle cx="775.0" cy="551.5" r="4.5" fill="#dc5038"/>
<circle cx="1110.0" cy="551.2" r="4.5" fill="#dc5038"/>
<polyline points="105.0,552.5 440.0,551.7 775.0,551.2 1110.0,551.3" fill="none" stroke="#d9901f" stroke-width="3" />
<circle cx="105.0" cy="552.5" r="4.5" fill="#d9901f"/>
<circle cx="440.0" cy="551.7" r="4.5" fill="#d9901f"/>
<circle cx="775.0" cy="551.2" r="4.5" fill="#d9901f"/>
<circle cx="1110.0" cy="551.3" r="4.5" fill="#d9901f"/>
<polyline points="105.0,762.3 440.0,765.9 775.0,769.8 1110.0,771.5" fill="none" stroke="#697486" stroke-width="3" stroke-dasharray="8 5"/>
<circle cx="105.0" cy="762.3" r="4.5" fill="#697486"/>
<circle cx="440.0" cy="765.9" r="4.5" fill="#697486"/>
<circle cx="775.0" cy="769.8" r="4.5" fill="#697486"/>
<circle cx="1110.0" cy="771.5" r="4.5" fill="#697486"/>
<polyline points="105.0,762.0 440.0,767.0 775.0,771.1 1110.0,772.1" fill="none" stroke="#2367bb" stroke-width="3" />
<circle cx="105.0" cy="762.0" r="4.5" fill="#2367bb"/>
<circle cx="440.0" cy="767.0" r="4.5" fill="#2367bb"/>
<circle cx="775.0" cy="771.1" r="4.5" fill="#2367bb"/>
<circle cx="1110.0" cy="772.1" r="4.5" fill="#2367bb"/>
</svg>
